<svg width="454" height="454" viewBox="0 0 454 454" fill="none" xmlns="http://www.w3.org/2000/svg">
<circle cx="227" cy="227" r="227" fill="#0855A7"/>
<circle cx="227" cy="227" r="194" stroke="white" stroke-width="6"/>
<path d="M284 227C284 271.194 277.264 311.07 266.472 339.789C261.072 354.159 254.714 365.581 247.807 373.355C240.896 381.133 233.69 385 226.5 385C219.31 385 212.104 381.133 205.193 373.355C198.286 365.581 191.928 354.159 186.528 339.789C175.736 311.07 169 271.194 169 227C169 182.806 175.736 142.93 186.528 114.211C191.928 99.8407 198.286 88.4195 205.193 80.6447C212.104 72.8668 219.31 69 226.5 69C233.69 69 240.896 72.8668 247.807 80.6447C254.714 88.4195 261.072 99.8407 266.472 114.211C277.264 142.93 284 182.806 284 227Z" stroke="white" stroke-width="6"/>
<path d="M257.061 187.815C294.548 211.221 324.804 238.055 343.449 262.419C352.778 274.61 359.099 286.052 362.035 296.029C364.973 306.01 364.436 314.171 360.628 320.269C356.82 326.368 349.723 330.433 339.466 332.175C329.213 333.916 316.158 333.26 301.108 330.229C271.032 324.173 233.64 308.767 196.154 285.361C158.667 261.955 128.411 235.121 109.766 210.757C100.437 198.566 94.1165 187.124 91.18 177.147C88.2424 167.166 88.7793 159.005 92.5872 152.907C96.3951 146.808 103.492 142.743 113.749 141.001C124.002 139.26 137.057 139.916 152.107 142.947C182.183 149.003 219.575 164.408 257.061 187.815Z" stroke="white" stroke-width="6"/>
<path d="M257.061 275.361C294.548 251.955 324.804 225.121 343.449 200.757C352.778 188.566 359.099 177.124 362.035 167.147C364.973 157.166 364.436 149.005 360.628 142.907C356.82 136.808 349.723 132.743 339.466 131.001C329.213 129.26 316.158 129.916 301.108 132.947C271.032 139.003 233.64 154.409 196.154 177.815C158.667 201.221 128.411 228.055 109.766 252.419C100.437 264.61 94.1165 276.052 91.18 286.029C88.2424 296.01 88.7793 304.171 92.5872 310.269C96.3951 316.368 103.492 320.433 113.749 322.175C124.002 323.916 137.057 323.26 152.107 320.229C182.183 314.173 219.575 298.768 257.061 275.361Z" stroke="white" stroke-width="6"/>
<circle cx="258" cy="105" r="23" fill="white"/>
<circle cx="323" cy="329" r="23" fill="white"/>
<circle cx="95" cy="280" r="23" fill="white"/>
</svg>
